<svg fill="none" height="191" viewBox="0 0 98 191" width="98" xmlns="http://www.w3.org/2000/svg"><path d="m68.5188 13.3449.6112 3.4663c.7847 4.4506-.6231 9.7291-4.2237 15.8354-1.8984 3.247-5.2441 5.293-10.0371 6.1382l-3.5947.6338c-1.3291-.0304-2.8067.0978-4.4329.3845-1.5406.2717-3.7632-.5719-6.6678-2.5307-2.8342-2.0595-4.5757-4.9294-5.2246-8.6097l-.5886-3.338c.0304-1.3291-.0148-2.336-.1355-3.0207-.8451-4.7929 1.0107-9.5327 5.5676-14.21914 2.6183-2.66791 5.9816-4.36407 10.0898-5.08846l1.7974-.31693c4.0226-.7093 7.6575-.11472 10.9044 1.78373 3.2319 1.81287 5.2101 4.77343 5.9345 8.8817zm-18.7073 173.9291-5.7772 1.019c-8.1309 1.433-12.7698-1.102-13.9168-7.607-1.0111-5.734-.3256-11.856 2.0567-18.366 7.2122-20.157 9.1356-39.778 5.7701-58.865-1.1167-6.3331-3.5629-10.4466-7.3385-12.3401-7.8533-3.9985-11.8931-6.6396-12.1195-7.9234-.6187-3.5092 2.6089-7.4759 9.683-11.9002 7.1446-4.525 15.9378-7.7081 26.3796-9.5493l1.9257-.3396c3.8515-.6791 6.5046-.3968 7.9594.8469 1.5253 1.1431 2.5219 3.0412 2.9897 5.6945.4678 2.6532.5768 15.7832.3268 39.3902-.2651 23.521-.0505 37.25.6437 41.187 1.0866 6.162 4.7211 9.007 10.9035 8.535 6.2529-.573 9.7793 1.408 10.5792 5.945.5885 3.338-1.7454 6.617-7.0018 9.839-13.1412 8.053-24.1624 12.864-33.0636 14.434z" fill="#f2f2f2"/></svg>