<?xml version="1.0" encoding="UTF-8"?>
<!DOCTYPE svg PUBLIC "-//W3C//DTD SVG 1.1//EN" "http://www.w3.org/Graphics/SVG/1.1/DTD/svg11.dtd">
<svg xmlns="http://www.w3.org/2000/svg" xmlns:xlink="http://www.w3.org/1999/xlink" version="1.1" width="112px" height="124px" viewBox="-0.5 -0.5 112 124"><defs/><g><path d="M 54.06 11 C 29.34 21.72 18 50.39 28.76 75.05 C 39.51 99.7 68.27 111 93 100.28 C 73.61 96.94 57.21 84.1 49.36 66.11 C 41.52 48.13 43.28 27.41 54.06 11 Z" fill="#000000" stroke="none" transform="rotate(-25,55.5,61)" pointer-events="all"/><path d="M 45.5 31 L 53.5 29 L 55.5 21 L 57.5 29 L 65.5 31 L 57.5 33 L 55.5 41 L 53.5 33 Z" fill="#000000" stroke="none" pointer-events="all"/><path d="M 62 61 L 68 59.5 L 69.5 53.5 L 71 59.5 L 77 61 L 71 62.5 L 69.5 68.5 L 68 62.5 Z" fill="#000000" stroke="none" pointer-events="all"/><path d="M 77 41 L 85 39 L 87 31 L 89 39 L 97 41 L 89 43 L 87 51 L 85 43 Z" fill="#000000" stroke="none" pointer-events="all"/></g></svg>