<?xml version="1.0" encoding="UTF-8"?>
<!DOCTYPE svg PUBLIC "-//W3C//DTD SVG 1.1//EN" "http://www.w3.org/Graphics/SVG/1.1/DTD/svg11.dtd">
<svg xmlns="http://www.w3.org/2000/svg" xmlns:xlink="http://www.w3.org/1999/xlink" version="1.1" width="201px" height="201px" viewBox="-0.5 -0.5 201 201"><defs/><g><ellipse cx="100" cy="100" rx="50" ry="50" fill="#000000" stroke="none" pointer-events="all"/><path d="M 80 10 L 120 20 L 80 30 Z" fill="#000000" stroke="none" transform="rotate(270,100,20)" pointer-events="all"/><path d="M 80 170 L 120 180 L 80 190 Z" fill="#000000" stroke="none" transform="rotate(90,100,180)" pointer-events="all"/><path d="M 160 90 L 200 100 L 160 110 Z" fill="#000000" stroke="none" pointer-events="all"/><path d="M 0 90 L 40 100 L 0 110 Z" fill="#000000" stroke="none" transform="rotate(180,20,100)" pointer-events="all"/><path d="M 137 147 L 177 157 L 137 167 Z" fill="#000000" stroke="none" transform="rotate(45,157,157)" pointer-events="all"/><path d="M 23 147 L 63 157 L 23 167 Z" fill="#000000" stroke="none" transform="rotate(135,43,157)" pointer-events="all"/><path d="M 23 33 L 63 43 L 23 53 Z" fill="#000000" stroke="none" transform="rotate(225,43,43)" pointer-events="all"/><path d="M 137 33 L 177 43 L 137 53 Z" fill="#000000" stroke="none" transform="rotate(315,157,43)" pointer-events="all"/></g></svg>